#!OML:ASF I:\Random Stuff\random\construction\7_22_03\Session 2\subj1.ASF
:FULLY-SPECIFIED
:DEGREES
427
root -8.36089 17.5954 -0.432737 -138.775 73.4807 -160.465
lowerback 18.5189 4.95296 -5.00976
upperback 5.46448 5.81224 -6.24321
thorax -4.21736 3.12433 -5.14122
lowerneck -21.8878 6.83435 -0.550015
upperneck 35.8727 18.9067 -12.3036
head 18.8318 6.27039 -1.14629
rclavicle 3.02153e-014 2.22639e-014
rhumerus 2.05675 40.31 -85.2926
rradius 98.1204
rwrist -16.3756
rhand -35.5462 31.1019
rfingers 7.12502
rthumb -8.67186 1.29997
lclavicle 3.02153e-014 2.22639e-014
lhumerus 25.4574 -8.10804 70.42
lradius 39.1997
lwrist -10.136
lhand -41.1082 68.3978
lfingers 7.12502
lthumb -14.0359 -97.9039
rfemur -10.2916 0.406513 15.9953
rtibia -1.43125e-014
rfoot -0.761277 -20.4311
rtoes -30.5984
lfemur -44.343 -5.51929 -4.00353
ltibia 29.7425
lfoot -9.14012 0.752853
ltoes -32.9443
428
root -8.36092 17.5957 -0.432594 -139.269 73.4912 -160.929
lowerback 18.5201 4.93678 -5.17853
upperback 5.49109 5.76658 -6.22425
thorax -4.20854 3.10296 -5.01537
lowerneck -21.7737 6.90367 -0.479644
upperneck 35.7626 19.0205 -12.4503
head 18.7875 6.31974 -1.19926
rclavicle 3.33958e-014 -3.97569e-015
rhumerus 1.98577 40.2117 -85.4542
rradius 98.1438
rwrist -16.4797
rhand -35.727 30.9943
rfingers 7.12502
rthumb -8.84636 1.19972
lclavicle 3.33958e-014 -3.97569e-015
lhumerus 25.4822 -8.05188 70.4823
lradius 39.0966
lwrist -10.1743
lhand -41.0652 68.2504
lfingers 7.12502
lthumb -13.9945 -97.7594
rfemur -10.2211 0.323591 15.8668
rtibia 6.36111e-015
rfoot -0.85537 -20.4161
rtoes -30.3647
lfemur -44.2955 -5.58507 -4.14933
ltibia 29.6986
lfoot -9.10677 0.744441
ltoes -32.9037
429
root -8.36302 17.5959 -0.435323 -139.34 73.4478 -160.998
lowerback 18.5283 4.93555 -5.15379
upperback 5.4923 5.76878 -6.20319
thorax -4.21166 3.10348 -5.00755
lowerneck -21.6398 6.97001 -0.426819
upperneck 35.6752 19.1177 -12.5405
head 18.7359 6.36811 -1.22903
rclavicle -4.13472e-014 4.37326e-014
rhumerus 1.86529 40.001 -85.6365
rradius 98.196
rwrist -16.5391
rhand -35.9603 30.8904
rfingers 7.12502
rthumb -9.07147 1.10544
lclavicle -4.13472e-014 4.37326e-014
lhumerus 25.5039 -8.24144 70.3962
lradius 39.0697
lwrist -10.0137
lhand -41.0907 68.3137
lfingers 7.12502
lthumb -14.019 -97.821
rfemur -10.2086 0.272479 15.8653
rtibia 1.90833e-014
rfoot -0.905503 -20.3944
rtoes -30.2768
lfemur -44.2934 -5.63158 -4.1501
ltibia 29.6522
lfoot -9.07165 0.764953
ltoes -33.0109
430
root -8.36554 17.5944 -0.437105 -139.433 73.3898 -161.088
lowerback 18.5434 4.96637 -5.05853
upperback 5.50052 5.82671 -6.23202
thorax -4.19602 3.13334 -5.10532
lowerneck -21.4799 6.90017 -0.343208
upperneck 35.3633 18.9641 -12.7947
head 18.5555 6.31892 -1.39389
rclavicle 9.30312e-014 -3.02153e-014
rhumerus 1.70191 39.619 -85.8533
rradius 98.2497
rwrist -16.4736
rhand -35.7736 30.762
rfingers 7.12502
rthumb -8.89135 0.969368
lclavicle 9.30312e-014 -3.02153e-014
lhumerus 25.5896 -8.58272 70.2698
lradius 39.0602
lwrist -9.87039
lhand -41.1295 68.4474
lfingers 7.12502
lthumb -14.0564 -97.9521
rfemur -10.1948 0.207293 15.8731
rtibia 4.29375e-014
rfoot -0.899059 -20.3888
rtoes -30.3329
lfemur -44.3159 -5.68712 -4.14335
ltibia 29.6371
lfoot -9.05784 0.738562
ltoes -33.119
431
root -8.36741 17.5929 -0.436825 -139.51 73.3574 -161.175
lowerback 18.5242 4.99099 -5.04064
upperback 5.5139 5.86647 -6.24867
thorax -4.16597 3.15405 -5.13883
lowerneck -21.7494 6.85339 -0.374874
upperneck 35.8233 18.9761 -12.5203
head 18.8401 6.31041 -1.25989
rclavicle 1.74931e-014 3.97569e-015
rhumerus 1.58757 39.3532 -86.0133
rradius 98.3175
rwrist -16.3062
rhand -35.3052 30.5056
rfingers 7.12502
rthumb -8.43936 0.694174
lclavicle 1.74931e-014 3.97569e-015
lhumerus 25.6686 -8.75337 70.2246
lradius 39.0224
lwrist -9.82791
lhand -41.1468 68.5161
lfingers 7.12502
lthumb -14.0731 -98.0196
rfemur -10.1949 0.163023 15.8736
rtibia 2.54444e-014
rfoot -0.874943 -20.3861
rtoes -30.4465
lfemur -44.3492 -5.73163 -4.1397
ltibia 29.6401
lfoot -9.04714 0.743879
ltoes -33.1147
432
root -8.37056 17.5928 -0.438328 -139.602 73.3424 -161.289
lowerback 18.513 4.97835 -5.05829
upperback 5.52337 5.84957 -6.25008
thorax -4.15214 3.14626 -5.12489
lowerneck -21.8062 6.8469 -0.331378
upperneck 35.9295 19.0393 -12.5793
head 18.9449 6.3247 -1.27796
rclavicle -1.82882e-014 1.11319e-014
rhumerus 1.52381 39.2444 -86.1289
rradius 98.41
rwrist -15.9444
rhand -34.8333 30.1567
rfingers 7.12502
rthumb -7.98384 0.327511
lclavicle -1.82882e-014 1.11319e-014
lhumerus 25.7125 -8.82556 70.1482
lradius 38.9875
lwrist -9.67244
lhand -41.2066 68.569
lfingers 7.12502
lthumb -14.1307 -98.0685
rfemur -10.2231 0.124669 15.8472
rtibia -5.725e-014
rfoot -0.836834 -20.3722
rtoes -30.6674
lfemur -44.3886 -5.81226 -4.13372
ltibia 29.6382
lfoot -9.03522 0.804803
ltoes -32.9093
433
root -8.37471 17.5924 -0.440581 -139.778 73.3282 -161.472
lowerback 18.5528 4.95602 -5.05975
upperback 5.53346 5.81907 -6.26874
thorax -4.16139 3.13258 -5.14126
lowerneck -21.7716 6.83572 -0.244241
upperneck 35.8574 19.0761 -12.7913
head 18.9533 6.33226 -1.37929
rclavicle 1.74931e-014 -7.23576e-014
rhumerus 1.51437 39.1902 -86.2318
rradius 98.4588
rwrist -15.376
rhand -34.4176 29.9637
rfingers 7.12502
rthumb -7.58264 0.119634
lclavicle 1.74931e-014 -7.23576e-014
lhumerus 25.7757 -8.91117 70.0672
lradius 38.9417
lwrist -9.5315
lhand -41.2778 68.5593
lfingers 7.12502
lthumb -14.1993 -98.054
rfemur -10.237 0.0738743 15.7985
rtibia 9.54166e-015
rfoot -0.792431 -20.3592
rtoes -30.9239
lfemur -44.4142 -5.89944 -4.15482
ltibia 29.6254
lfoot -9.021 0.824396
ltoes -32.6511
434
root -8.37755 17.5919 -0.441637 -139.929 73.3218 -161.615
lowerback 18.59 4.93218 -5.09308
upperback 5.54667 5.78141 -6.26722
thorax -4.17149 3.11481 -5.11601
lowerneck -21.7402 6.83911 -0.241616
upperneck 35.776 19.1503 -12.9681
head 18.9443 6.34759 -1.44126
rclavicle 3.57812e-014 -1.4551e-013
rhumerus 1.58765 39.2527 -86.2936
rradius 98.4577
rwrist -14.9292
rhand -33.953 29.9606
rfingers 7.12502
rthumb -7.13422 0.100852
lclavicle 3.57812e-014 -1.4551e-013
lhumerus 25.8369 -8.86868 70.1166
lradius 38.8516
lwrist -9.56915
lhand -41.3363 68.4449
lfingers 7.12502
lthumb -14.2557 -97.9356
rfemur -10.2177 0.0383789 15.7599
rtibia 1.11319e-014
rfoot -0.804217 -20.3378
rtoes -30.8616
lfemur -44.4177 -5.89101 -4.21984
ltibia 29.6203
lfoot -9.01299 0.754783
ltoes -32.624
435
root -8.38005 17.592 -0.443374 -140.042 73.3184 -161.748
lowerback 18.586 4.90079 -5.16303
upperback 5.54071 5.7271 -6.23615
thorax -4.18825 3.08694 -5.03163
lowerneck -21.7026 6.86832 -0.370957
upperneck 35.7587 19.2782 -13.009
head 18.9339 6.37961 -1.40833
rclavicle 1.03368e-014 -5.40694e-014
rhumerus 1.70424 39.4351 -86.313
rradius 98.4605
rwrist -14.6149
rhand -33.5701 29.767
rfingers 7.12502
rthumb -6.76457 -0.104954
lclavicle 1.03368e-014 -5.40694e-014
lhumerus 25.8397 -8.7124 70.2488
lradius 38.7651
lwrist -9.66669
lhand -41.3746 68.3456
lfingers 7.12502
lthumb -14.2926 -97.8337
rfemur -10.2178 0.00482237 15.7215
rtibia -2.70347e-014
rfoot -0.82938 -20.3046
rtoes -30.7244
lfemur -44.4616 -5.87669 -4.28278
ltibia 29.6526
lfoot -9.0313 0.732241
ltoes -32.8584
436
root -8.38435 17.5917 -0.445315 -139.718 73.2831 -161.479
lowerback 18.5528 4.88981 -5.10595
upperback 5.51016 5.7193 -6.19778
thorax -4.2038 3.08015 -5.01855
lowerneck -21.672 6.86518 -0.472269
upperneck 35.7815 19.3215 -12.9887
head 18.9289 6.38733 -1.37364
rclavicle -3.26007e-014 4.13472e-014
rhumerus 1.86562 39.6069 -86.257
rradius 98.4775
rwrist -14.2615
rhand -33.398 29.2537
rfingers 7.12502
rthumb -6.59844 -0.623511
lclavicle -3.26007e-014 4.13472e-014
lhumerus 25.8506 -8.63644 70.3252
lradius 38.7281
lwrist -9.69344
lhand -41.3509 68.3104
lfingers 7.12502
lthumb -14.2698 -97.8001
rfemur -10.2984 0.0209266 15.8055
rtibia -3.18055e-015
rfoot -0.826617 -20.2875
rtoes -30.768
lfemur -44.5754 -5.9005 -4.14955
ltibia 29.7172
lfoot -9.05064 0.832937
ltoes -32.9047
437
root -8.38915 17.5912 -0.446938 -138.893 73.2493 -160.708
lowerback 18.4963 4.9251 -4.90877
upperback 5.47427 5.7969 -6.17484
thorax -4.19458 3.11499 -5.11636
lowerneck -21.6606 6.83557 -0.466999
upperneck 35.7945 19.2925 -13.0095
head 18.9359 6.37544 -1.39165
rclavicle 5.08889e-014 1.59028e-015
rhumerus 2.04603 39.642 -86.1396
rradius 98.5087
rwrist -13.9524
rhand -33.0971 28.6718
rfingers 7.12502
rthumb -6.30791 -1.2143
lclavicle 5.08889e-014 1.59028e-015
lhumerus 25.9311 -8.68432 70.348
lradius 38.6854
lwrist -9.69965
lhand -41.3353 68.3053
lfingers 7.12502
lthumb -14.2547 -97.796
rfemur -10.4268 0.135702 16.0144
rtibia 9.54166e-015
rfoot -0.841923 -20.2802
rtoes -30.7933
lfemur -44.6884 -5.86521 -3.8547
ltibia 29.792
lfoot -9.07532 0.957964
ltoes -32.6305
438
root -8.39311 17.5913 -0.449122 -138.423 73.2536 -160.276
lowerback 18.4501 4.99015 -4.77086
upperback 5.45525 5.90612 -6.20235
thorax -4.16974 3.16815 -5.24269
lowerneck -21.6537 6.7859 -0.371001
upperneck 35.8645 19.2108 -13.0153
head 18.9794 6.35419 -1.43171
rclavicle -7.87187e-014 9.85972e-014
rhumerus 2.19265 39.5526 -86.0341
rradius 98.5372
rwrist -13.7419
rhand -32.8732 28.0419
rfingers 7.12502
rthumb -6.09179 -1.85048
lclavicle -7.87187e-014 9.85972e-014
lhumerus 26.0699 -8.87497 70.3376
lradius 38.6363
lwrist -9.65624
lhand -41.3783 68.3177
lfingers 7.12502
lthumb -14.2962 -97.8055
rfemur -10.5077 0.216089 16.1097
rtibia -6.36111e-015
rfoot -0.848694 -20.2454
rtoes -30.6509
lfemur -44.7638 -5.83507 -3.70166
ltibia 29.8621
lfoot -9.11303 1.00943
ltoes -32.2176
439
root -8.39683 17.5918 -0.45154 -138.37 73.2712 -160.256
lowerback 18.4498 5.07387 -4.65547
upperback 5.4249 6.03192 -6.29466
thorax -4.17374 3.2317 -5.43642
lowerneck -21.644 6.69483 -0.24531
upperneck 36.0377 19.023 -12.8919
head 19.0469 6.30726 -1.44622
rclavicle 3.02153e-014 6.91771e-014
rhumerus 2.24547 39.3593 -86.0465
rradius 98.4984
rwrist -13.6007
rhand -33.0083 27.5525
rfingers 7.12502
rthumb -6.22223 -2.33615
lclavicle 3.02153e-014 6.91771e-014
lhumerus 26.2082 -9.33113 70.1919
lradius 38.6631
lwrist -9.42904
lhand -41.4055 68.3216
lfingers 7.12502
lthumb -14.3224 -97.8076
rfemur -10.5483 0.226052 16.0921
rtibia 9.54166e-015
rfoot -0.847123 -20.2138
rtoes -30.3792
lfemur -44.8287 -5.8404 -3.69843
ltibia 29.9104
lfoot -9.12134 1.03208
ltoes -32.2211
440
root -8.40005 17.5923 -0.454018 -138.344 73.3024 -160.262
lowerback 18.4423 5.1285 -4.60794
upperback 5.40068 6.10879 -6.34515
thorax -4.18092 3.27004 -5.5353
lowerneck -21.6278 6.63003 -0.207438
upperneck 36.1512 18.9041 -12.7984
head 19.0817 6.27482 -1.44193
rclavicle 3.89618e-014 1.59028e-014
rhumerus 2.28903 39.3094 -86.0418
rradius 98.392
rwrist -13.5256
rhand -33.1235 27.5012
rfingers 7.12502
rthumb -6.33347 -2.38415
lclavicle 3.89618e-014 1.59028e-014
lhumerus 26.2605 -9.66077 70.0591
lradius 38.715
lwrist -9.20337
lhand -41.4074 68.311
lfingers 7.12502
lthumb -14.3242 -97.7969
rfemur -10.5869 0.240858 16.0582
rtibia 6.36111e-015
rfoot -0.885922 -20.2297
rtoes -30.2782
lfemur -44.8726 -5.83072 -3.7259
ltibia 29.9223
lfoot -9.10139 1.06887
ltoes -32.5576
